<?xml version="1.0" encoding="utf-8"?>
<!-- Generator: Adobe Illustrator 19.0.0, SVG Export Plug-In . SVG Version: 6.00 Build 0)  -->
<svg version="1.1" id="Layer_1" xmlns="http://www.w3.org/2000/svg" xmlns:xlink="http://www.w3.org/1999/xlink" x="0px" y="0px"
	 viewBox="166 -166 512 512" style="enable-background:new 166 -166 512 512;" xml:space="preserve">
<style type="text/css">
	.st0{fill:#FFFFFF;}
</style>
<circle id="ellipse" class="st0" cx="422" cy="90" r="256"/>
<path id="logo" d="M538.4,2.7c0,0-33.3-26.1-72.7-29.1l-3.5,7.1c35.6,8.7,51.9,21.2,69,36.5c-29.4-15-58.5-29.1-109.1-29.1
	S342.4,2.2,313,17.2c17.1-15.3,36.5-29.2,69-36.5l-3.5-7.1c-41.3,3.9-72.7,29.1-72.7,29.1s-37.2,54-43.6,160
	c37.5,43.3,94.5,43.6,94.5,43.6l11.9-15.9c-20.2-7-43.1-19.6-62.8-42.3c23.5,17.8,59.1,36.4,116.4,36.4S515,166,538.6,148.1
	c-19.7,22.7-42.6,35.3-62.8,42.3l11.9,15.9c0,0,57-0.3,94.5-43.6C575.6,56.7,538.4,2.7,538.4,2.7z M374.7,133.6
	c-14.1,0-25.5-13-25.5-29.1s11.4-29.1,25.5-29.1c14.1,0,25.5,13,25.5,29.1S388.8,133.6,374.7,133.6z M469.3,133.6
	c-14.1,0-25.5-13-25.5-29.1s11.4-29.1,25.5-29.1s25.5,13,25.5,29.1S483.3,133.6,469.3,133.6z"/>
</svg>
